# xmcd
#
# Track frame offsets:
#	150
#	25890
#	42706
#	63087
#	83400
#	107065
#	123109
#	137818
#	156768
#	177129
#	193383
#
# Disc length: 2997 seconds
#
# Revision: 1
# Processed by: cddbd v1.5.2PL0 Copyright (c) Steve Scherf et al.
# Submitted via: audiograbber 1.83.01
#
DISCID=8e0bb30b
DTITLE=Van Morrison - Keep It Simple
DYEAR=2008
DGENRE=Country
TTITLE0=How Can A Poor Boy?
TTITLE1=School Of Hard Knocks
TTITLE2=That's Entrainment
TTITLE3=Don't Go To Nightclubs Anymore
TTITLE4=Lover Come Back
TTITLE5=Keep It Simple
TTITLE6=End Of The Land
TTITLE7=Song Of Home
TTITLE8=No Thing
TTITLE9=Soul
TTITLE10=Behind The Ritual
EXTD=
EXTT0=
EXTT1=
EXTT2=
EXTT3=
EXTT4=
EXTT5=
EXTT6=
EXTT7=
EXTT8=
EXTT9=
EXTT10=
PLAYORDER=
